# xmcd
#
# Track frame offsets: 
#        150
#        17498
#        31007
#        38363
#        50636
#        78825
#        96466
#        114112
#        128866
#        154962
#        166273
#        198711
#
# Disc length: 2745 seconds
#
# Revision: 0
# Processed by: cddbd v1.5.2PL0 Copyright (c) Steve Scherf et al.
# Submitted via: ExactAudioCopy v0.99pb5
#
DISCID=8b0ab70c
DTITLE=Various Artist - M for Mississippi - A Road Trip Through The Birthplac
DTITLE=e Of The Blues
DYEAR=2008
DGENRE=Blues
TTITLE0=Johnnie B. Goode
TTITLE1=Evil
TTITLE2=Leland's Burning Down (inst.)
TTITLE3=Hi Heel Sneakers
TTITLE4=Over The Hill
TTITLE5=Hard Headed Woman
TTITLE6=I'm Going Down South
TTITLE7=Mr. Lucky
TTITLE8=Walking the Back Streets and Crying
TTITLE9=What A Way It Used To Be
TTITLE10=When I Was In Trouble
TTITLE11=M for Mississippi - The Front Porch Version
EXTD=
EXTT0=
EXTT1=
EXTT2=
EXTT3=
EXTT4=
EXTT5=
EXTT6=
EXTT7=
EXTT8=
EXTT9=
EXTT10=
EXTT11=
PLAYORDER=
